<svg width="28" height="16" viewBox="0 0 28 16" fill="none" xmlns="http://www.w3.org/2000/svg">
<path d="M26.8271 6.72001C26.6138 6.50668 22.0138 2.30667 20.6004 1.02667C20.0538 0.533341 19.2138 0.573351 18.7204 1.12002C18.2271 1.66668 18.2671 2.50667 18.8138 3C20.0404 4.12 21.5871 5.53334 22.8271 6.66667H5.25376C6.9071 5.09334 8.86709 3.21334 8.86709 3.21334C9.40042 2.70667 9.41375 1.86667 8.90708 1.33334C8.40042 0.800002 7.56041 0.78667 7.02708 1.29334C5.29375 2.94667 1.25375 6.81335 1.16042 6.90668C0.880421 7.18668 0.720441 7.54669 0.680441 7.93335C0.640441 8.42669 0.81378 8.90669 1.18711 9.26669C1.38711 9.46669 5.81377 13.5067 7.17377 14.7333C7.4271 14.96 7.74708 15.08 8.06708 15.08C8.42708 15.08 8.78711 14.9333 9.05377 14.64C9.54711 14.0933 9.5071 13.2533 8.96043 12.76C7.81376 11.72 6.37375 10.4 5.20042 9.33334H22.7604C21.0271 10.9867 18.9071 13.0133 18.9071 13.0133C18.3738 13.52 18.3604 14.36 18.8671 14.8934C19.1338 15.1734 19.4804 15.3067 19.8271 15.3067C20.1604 15.3067 20.4938 15.1867 20.7471 14.9334C22.5471 13.2134 26.7604 9.18668 26.8538 9.09335C27.4271 8.50668 27.5738 7.46668 26.8138 6.72001H26.8271Z" fill="#676A71"/>
</svg>
