<svg width="28" height="22" viewBox="0 0 28 22" fill="none" xmlns="http://www.w3.org/2000/svg">
<path d="M26.0003 9.66667H5.02702L12.107 2.6C12.627 2.08 12.627 1.24 12.107 0.720002C11.587 0.200002 10.747 0.200002 10.227 0.720002L1.20036 9.72C0.880358 10.04 0.720352 10.4667 0.693685 10.8933C0.693685 10.9333 0.666992 10.96 0.666992 11C0.666992 11.04 0.680352 11.0667 0.693685 11.1067C0.720352 11.5333 0.880358 11.96 1.20036 12.28L10.227 21.28C10.4936 21.5333 10.827 21.6667 11.1737 21.6667C11.5203 21.6667 11.8537 21.5333 12.1204 21.28C12.6404 20.76 12.6404 19.92 12.1204 19.4L5.04036 12.3467H26.0137C26.747 12.3467 27.347 11.7467 27.347 11.0133C27.347 10.28 26.747 9.68 26.0137 9.68L26.0003 9.66667Z" fill="#676A71"/>
</svg>
