<svg width="28" height="22" viewBox="0 0 28 22" fill="none" xmlns="http://www.w3.org/2000/svg">
<path d="M27.2668 3.68001C27.2001 3.53335 25.4934 0.239909 20.0267 0.239909C16.9867 0.239909 15.1334 1.29323 14.0801 2.22656C13.0001 1.2799 11.1067 0.226562 7.98673 0.226562C2.62673 0.226562 0.933407 3.53335 0.86674 3.68001L0.733398 3.95996V18.9066C0.733398 19.6799 1.10673 20.4 1.7334 20.8534C2.34673 21.2934 3.14677 21.4 3.85343 21.1466C4.82677 20.8 6.34676 20.3866 8.01343 20.3866C10.5601 20.3866 12.7068 21.2534 13.3068 21.52C13.5068 21.6134 13.7201 21.6533 13.9201 21.6533C13.9734 21.6533 14.0134 21.64 14.0667 21.6266C14.1201 21.6266 14.1867 21.6533 14.2401 21.6533C14.4401 21.6533 14.6534 21.6134 14.8534 21.52C15.4401 21.2534 17.5467 20.3999 20.0801 20.3999C21.7867 20.3999 23.3067 20.8 24.2934 21.1466C25.0001 21.3866 25.7867 21.28 26.4001 20.84C27.0267 20.4 27.4001 19.6666 27.4001 18.9066V3.94661L27.2534 3.66667L27.2668 3.68001ZM12.7601 18.4666C11.5468 18.08 9.8934 17.7199 8.02673 17.7199C6.16007 17.7199 4.57341 18.1066 3.41341 18.48V4.66667C3.81341 4.14667 5.08008 2.90658 8.00008 2.90658C11.0667 2.90658 12.3734 4.17335 12.7601 4.68001V18.4666ZM24.7467 18.4933C23.5734 18.12 21.9334 17.7466 20.0934 17.7466C18.2534 17.7466 16.6267 18.1066 15.4401 18.48V4.68001C15.8267 4.16001 17.0801 2.91992 20.0401 2.91992C23.0001 2.91992 24.3601 4.17335 24.7467 4.68001V18.5067V18.4933Z" fill="#676A71"/>
</svg>
