<svg width="22" height="28" viewBox="0 0 22 28" fill="none" xmlns="http://www.w3.org/2000/svg">
<path d="M21.4535 11.1066C21.4535 5.34661 16.7602 0.65332 11.0002 0.65332C5.2402 0.65332 0.546875 5.34661 0.546875 11.1066C0.546875 14.8266 2.56019 18.2399 5.73352 20.1066L5.70687 22.1066C5.70687 24.9999 8.05352 27.3467 10.9469 27.3467C13.8402 27.3467 16.1869 24.9999 16.1869 22.1066V20.16C19.4002 18.3067 21.4535 14.8666 21.4535 11.1066V11.1066ZM13.5202 22.1066C13.5202 23.5199 12.3602 24.68 10.9469 24.68C9.53352 24.68 8.37353 23.5199 8.37353 22.1066V20.72H13.5202V22.1066ZM14.5202 18.0533H12.3335V11.3467C12.3335 10.6133 11.7335 10.0133 11.0002 10.0133C10.2669 10.0133 9.66687 10.6133 9.66687 11.3467V18.0533H7.48018C4.88018 16.7333 3.21354 14.0399 3.21354 11.1066C3.21354 6.81327 6.70687 3.31999 11.0002 3.31999C15.2935 3.31999 18.7869 6.81327 18.7869 11.1066C18.7869 14.0399 17.1202 16.7333 14.5202 18.0533Z" fill="#676A71"/>
</svg>
