<svg width="28" height="22" viewBox="0 0 28 22" fill="none" xmlns="http://www.w3.org/2000/svg">
<path d="M26.0802 7.64C23.4535 4.49333 19.2402 0.733332 14.0135 0.733332C13.0135 0.733332 11.9868 0.879999 10.9735 1.16C10.2668 1.36 9.85351 2.09333 10.0535 2.8C10.2535 3.50666 10.9869 3.92 11.6935 3.72C12.4669 3.50667 13.2535 3.38667 14.0135 3.38667C18.4135 3.38667 22.1735 7.10667 24.0269 9.33333C24.8669 10.3467 24.8802 11.7733 24.0669 12.7867C23.7469 13.1867 23.3869 13.6 22.9869 14.0267C22.4802 14.56 22.5069 15.4133 23.0402 15.9067C23.2935 16.1467 23.6269 16.2667 23.9602 16.2667C24.3202 16.2667 24.6668 16.12 24.9335 15.8533C25.3868 15.3733 25.7869 14.9067 26.1469 14.4667C27.7602 12.48 27.7335 9.6 26.0935 7.62667L26.0802 7.64Z" fill="#676A71"/>
<path d="M8.73352 3.85333C8.69352 3.74667 8.66684 3.64 8.60018 3.53334C8.42684 3.28 8.18684 3.13333 7.93351 3.04L5.61352 0.720002C5.09352 0.200002 4.24018 0.200002 3.73352 0.720002C3.21352 1.24 3.21352 2.08 3.73352 2.6L5.36018 4.22666C4.18685 5.17333 3.05352 6.29333 1.94685 7.6C0.280188 9.57333 0.226846 12.36 1.81351 14.3867C3.82685 16.9467 8.08018 21.2533 13.9602 21.2533C16.1868 21.2533 18.3735 20.6133 20.4935 19.4L22.3602 21.28C22.6269 21.5467 22.9602 21.6667 23.3068 21.6667C23.6535 21.6667 23.9868 21.5333 24.2535 21.28C24.7735 20.76 24.7735 19.92 24.2535 19.4L8.73352 3.85333ZM11.4269 10.3333L14.6668 13.5733C14.4535 13.6267 14.2268 13.6667 14.0002 13.6667C12.5335 13.6667 11.3335 12.4667 11.3335 11C11.3335 10.7733 11.3735 10.5467 11.4269 10.3333ZM13.9469 18.6C9.20019 18.6 5.61351 14.9333 3.89351 12.7467C3.09351 11.7333 3.12018 10.32 3.96018 9.33333C5.01351 8.08 6.10684 7.01333 7.22684 6.14667L9.41351 8.33333C8.93351 9.14667 8.65352 10.0533 8.65352 11.0133C8.65352 13.96 11.0402 16.3467 13.9869 16.3467C14.9335 16.3467 15.8535 16.0667 16.6535 15.6L18.5069 17.4667C17.0002 18.2267 15.4668 18.6133 13.9335 18.6133L13.9469 18.6Z" fill="#676A71"/>
</svg>
