<svg width="22" height="28" viewBox="0 0 22 28" fill="none" xmlns="http://www.w3.org/2000/svg">
<path d="M10.9995 16.6533C9.98618 16.6533 9.17285 17.4666 9.17285 18.48C9.17285 19.4933 9.98618 20.3066 10.9995 20.3066C12.0128 20.3066 12.8262 19.4933 12.8262 18.48C12.8262 17.4666 12.0128 16.6533 10.9995 16.6533Z" fill="#676A71"/>
<path d="M16.5997 10H16.333V6C16.333 3.05333 13.9463 0.666666 10.9997 0.666666C8.05301 0.666666 5.66634 3.05333 5.66634 6V10H5.39966C2.59966 10 0.333008 12.28 0.333008 15.0667V22.2533C0.333008 25.0533 2.61299 27.32 5.39966 27.32H16.5863C19.3863 27.32 21.653 25.04 21.653 22.2533V15.0667C21.653 12.2667 19.373 10 16.5863 10H16.5997ZM8.33301 6C8.33301 4.53333 9.53301 3.33333 10.9997 3.33333C12.4663 3.33333 13.6663 4.53333 13.6663 6V10H8.33301V6ZM18.9997 22.2667C18.9997 23.5867 17.9197 24.6667 16.5997 24.6667H5.413C4.093 24.6667 3.01302 23.5867 3.01302 22.2667V15.08C3.01302 13.76 4.093 12.68 5.413 12.68H16.5997C17.9197 12.68 18.9997 13.76 18.9997 15.08V22.2667Z" fill="#676A71"/>
</svg>
