<svg width="25" height="24" viewBox="0 0 25 24" fill="none" xmlns="http://www.w3.org/2000/svg">
<path d="M14.6667 16C13.9333 16 13.3333 16.6 13.3333 17.3333V18.6667C13.3333 20.1067 12.4133 21.3333 11.3333 21.3333H4.66667C3.58667 21.3333 2.66667 20.1067 2.66667 18.6667V5.33333C2.66667 3.89333 3.58667 2.66667 4.66667 2.66667H11.3333C12.4133 2.66667 13.3333 3.89333 13.3333 5.33333V6.66667C13.3333 7.4 13.9333 8 14.6667 8C15.4 8 16 7.4 16 6.66667V5.33333C16 2.38667 13.9067 0 11.3333 0H4.66667C2.09333 0 0 2.38667 0 5.33333V18.6667C0 21.6133 2.09333 24 4.66667 24H11.3333C13.9067 24 16 21.6133 16 18.6667V17.3333C16 16.6 15.4 16 14.6667 16Z" fill="#E0371F"/>
<path d="M23.9997 12C23.9997 11.8134 23.9597 11.6267 23.8797 11.4667C23.7997 11.2533 23.693 11.0667 23.533 10.9067L19.5197 6.90668C18.9997 6.38668 18.1597 6.38668 17.6397 6.90668C17.1197 7.42668 17.1197 8.26665 17.6397 8.78665L19.5197 10.6533H6.66634C5.93301 10.6533 5.33301 11.2533 5.33301 11.9867C5.33301 12.72 5.93301 13.32 6.66634 13.32H19.5197L17.653 15.1866C17.133 15.7066 17.133 16.5467 17.653 17.0667C17.9197 17.3333 18.253 17.4533 18.5997 17.4533C18.9464 17.4533 19.2797 17.32 19.5463 17.0667L23.5463 13.08C23.7063 12.92 23.8264 12.72 23.893 12.52C23.9597 12.36 24.013 12.1733 24.013 11.9867L23.9997 12Z" fill="#E0371F"/>
</svg>
