<svg width="32" height="32" viewBox="0 0 32 32" fill="none" xmlns="http://www.w3.org/2000/svg">
<path d="M17.809 9.36163L12.3788 15.0721C12.2588 15.1959 12.1635 15.3431 12.0985 15.5053C12.0335 15.6675 12 15.8415 12 16.0172C12 16.1929 12.0335 16.3669 12.0985 16.5291C12.1635 16.6914 12.2588 16.8386 12.3788 16.9623L17.809 22.6063C17.928 22.731 18.0697 22.83 18.2258 22.8976C18.3818 22.9652 18.5492 23 18.7183 23C18.8874 23 19.0547 22.9652 19.2108 22.8976C19.3669 22.83 19.5085 22.731 19.6276 22.6063C19.8661 22.3569 20 22.0195 20 21.6678C20 21.3162 19.8661 20.9788 19.6276 20.7294L15.0939 16.0172L19.6276 11.3051C19.8642 11.0571 19.9976 10.7225 19.999 10.3733C20 10.1981 19.9677 10.0244 19.9039 9.86226C19.8402 9.70008 19.7463 9.55257 19.6276 9.42819C19.5128 9.29897 19.3745 9.19467 19.2208 9.12132C19.067 9.04797 18.9007 9.00701 18.7316 9.00082C18.5625 8.99463 18.3939 9.02334 18.2356 9.08526C18.0772 9.14719 17.9322 9.24113 17.809 9.36163Z" fill="#4D4D4F"/>
</svg>
