<svg width="14" height="8" viewBox="0 0 14 8" fill="none" xmlns="http://www.w3.org/2000/svg">
<path d="M0.361635 2.19101L6.07213 7.62117C6.19588 7.74121 6.3431 7.83649 6.50531 7.90151C6.66752 7.96652 6.8415 8 7.01722 8C7.19295 8 7.36693 7.96652 7.52914 7.90151C7.69135 7.83649 7.83857 7.74121 7.96232 7.62117L13.6063 2.19101C13.731 2.07195 13.83 1.93031 13.8976 1.77424C13.9652 1.61818 14 1.45078 14 1.28171C14 1.11265 13.9652 0.945251 13.8976 0.789186C13.83 0.633121 13.731 0.491475 13.6063 0.372417C13.3569 0.133886 13.0195 -2.10811e-07 12.6678 -2.10811e-07C12.3162 -2.10811e-07 11.9788 0.133886 11.7294 0.372417L7.01722 4.90609L2.30507 0.372417C2.05713 0.135816 1.72249 0.00242943 1.37328 0.00101475C1.1981 4.02724e-05 1.02444 0.0323454 0.862259 0.0960788C0.700079 0.159812 0.55257 0.25372 0.42819 0.372417C0.298972 0.487191 0.194674 0.625463 0.12132 0.779243C0.0479664 0.933024 0.00701207 1.09927 0.000823532 1.26836C-0.00536501 1.43746 0.0233351 1.60606 0.085265 1.76442C0.147195 1.92279 0.241127 2.06778 0.361635 2.19101Z" fill="#676A71"/>
</svg>
